<svg width="239" height="218" viewBox="0 0 239 218" fill="none" xmlns="http://www.w3.org/2000/svg">
<path fill-rule="evenodd" clip-rule="evenodd" d="M151.187 13.332C141.505 -3.44464 117.29 -3.44465 107.608 13.332L23.2382 159.515C13.5581 176.287 25.6627 197.249 45.028 197.249H55.5699L54.0228 190.884L112.944 149.171L177.248 136.542V176.845C177.248 189.827 182.582 197.224 194.658 197.224L194.665 197.249H213.767C233.132 197.249 245.237 176.287 235.557 159.515L151.187 13.332Z" fill="url(#paint0_linear_859_12092)"/>
<path d="M87.1822 157.474C76.5654 164.317 63.9862 153.649 72.6407 141.372L70.3765 131.409L53.4197 142.228L30.9282 167.185L47.3818 197.174H60.3634C84.1628 197.174 89.4946 198.013 100.516 188.771L132.481 160.644C140.568 154.437 145.614 149.801 151.638 150.983C166.079 153.817 179.513 157.977 191.891 141.372C191.891 141.372 208.345 121.145 210.156 118.78C211.967 116.415 209.452 113.692 206.382 115.61C203.313 117.528 185.752 128.441 185.752 128.441C179.765 131.46 179.01 134.378 167.186 131.409C155.361 128.441 142.832 119.035 129.599 127.887L87.1822 157.474Z" fill="url(#paint1_radial_859_12092)"/>
<path fill-rule="evenodd" clip-rule="evenodd" d="M75.9896 129.161C77.0259 131.446 77.4946 132.476 77.9633 133.505C78.4395 134.551 78.9156 135.597 79.9869 137.959C81.3358 140.934 83.4011 140.788 90.5705 139.481L152.331 128.218L139.613 100.175L139.613 100.175L128.567 75.8175C126.986 72.3318 125.31 73.5518 123.853 74.6439L122.835 75.4742L121.988 76.1784L70.5032 117.064L75.9893 129.161L75.9896 129.161Z" fill="url(#paint2_linear_859_12092)"/>
<path d="M141.889 75.0309C145.886 76.7382 154.861 82.4351 158.779 91.564C162.697 100.693 162.015 112.07 161.185 116.617" stroke="#E2B427" stroke-width="7.5693" stroke-linecap="round"/>
<path d="M150.228 61.2524C155.757 63.7808 168.1 72.0582 173.243 84.9413C178.386 97.8244 177.012 113.677 175.682 119.993" stroke="#F3DC6E" stroke-width="7.5693" stroke-linecap="round"/>
<g filter="url(#filter0_d_859_12092)">
<path d="M87.1822 157.474C76.5654 164.317 63.9862 153.649 72.6407 141.372L70.3765 131.409L53.4197 142.228L30.9282 167.185L47.3818 197.174H60.3634C84.1628 197.174 89.4946 198.013 100.516 188.771L132.481 160.644C140.568 154.437 145.614 149.801 151.638 150.983C166.079 153.817 179.513 157.977 191.891 141.372C191.891 141.372 208.345 121.145 210.156 118.78C211.967 116.415 209.452 113.692 206.382 115.61C203.313 117.528 185.752 128.441 185.752 128.441C179.765 131.46 179.01 134.378 167.186 131.409C155.361 128.441 142.832 119.035 129.599 127.887L87.1822 157.474Z" fill="url(#paint3_radial_859_12092)"/>
</g>
<path fill-rule="evenodd" clip-rule="evenodd" d="M151.489 13.332C141.807 -3.44464 117.593 -3.44465 107.91 13.332L23.5405 159.515C13.8604 176.287 25.9649 197.249 45.3302 197.249H81.3422C63.5045 195.492 52.8843 175.657 62.1272 159.641L127.281 46.7452C136.625 30.5543 159.503 29.9883 169.794 45.0471L151.489 13.332Z" fill="url(#paint4_linear_859_12092)"/>
<defs>
<filter id="filter0_d_859_12092" x="0.738155" y="84.7715" width="230.154" height="132.549" filterUnits="userSpaceOnUse" color-interpolation-filters="sRGB">
<feFlood flood-opacity="0" result="BackgroundImageFix"/>
<feColorMatrix in="SourceAlpha" type="matrix" values="0 0 0 0 0 0 0 0 0 0 0 0 0 0 0 0 0 0 127 0" result="hardAlpha"/>
<feOffset dx="-5.03168" dy="-5.03168"/>
<feGaussianBlur stdDeviation="12.5792"/>
<feComposite in2="hardAlpha" operator="out"/>
<feColorMatrix type="matrix" values="0 0 0 0 0 0 0 0 0 0 0 0 0 0 0 0 0 0 0.25 0"/>
<feBlend mode="normal" in2="BackgroundImageFix" result="effect1_dropShadow_859_12092"/>
<feBlend mode="normal" in="SourceGraphic" in2="effect1_dropShadow_859_12092" result="shape"/>
</filter>
<linearGradient id="paint0_linear_859_12092" x1="129.397" y1="-24.4219" x2="402.114" y2="131.66" gradientUnits="userSpaceOnUse">
<stop stop-color="#061648"/>
<stop offset="0.217236" stop-color="#112A7D"/>
<stop offset="1" stop-color="#0152CC"/>
</linearGradient>
<radialGradient id="paint1_radial_859_12092" cx="0" cy="0" r="1" gradientUnits="userSpaceOnUse" gradientTransform="translate(210.81 85.621) rotate(155.142) scale(183.498 401.304)">
<stop stop-color="#FFFAD0"/>
<stop offset="0.244429" stop-color="#F1DC3A"/>
<stop offset="0.584686" stop-color="#DCA11D"/>
<stop offset="0.824111" stop-color="#E0710B"/>
<stop offset="1" stop-color="#9E4E04"/>
</radialGradient>
<linearGradient id="paint2_linear_859_12092" x1="87.3314" y1="69.5812" x2="96.848" y2="149.545" gradientUnits="userSpaceOnUse">
<stop stop-color="#FAED90"/>
<stop offset="0.520833" stop-color="#E4B929"/>
<stop offset="1" stop-color="#B95D07"/>
</linearGradient>
<radialGradient id="paint3_radial_859_12092" cx="0" cy="0" r="1" gradientUnits="userSpaceOnUse" gradientTransform="translate(210.81 85.621) rotate(155.142) scale(183.498 401.304)">
<stop stop-color="#FFFAD0"/>
<stop offset="0.244429" stop-color="#F1DC3A"/>
<stop offset="0.584686" stop-color="#DCA11D"/>
<stop offset="0.885417" stop-color="#E0710B"/>
<stop offset="1" stop-color="#9E4E04"/>
</radialGradient>
<linearGradient id="paint4_linear_859_12092" x1="185.401" y1="39.1788" x2="94.964" y2="197.249" gradientUnits="userSpaceOnUse">
<stop offset="0.0885417" stop-color="#3076FF"/>
<stop offset="0.411458" stop-color="#024FC6"/>
<stop offset="1" stop-color="#0D2267"/>
</linearGradient>
</defs>
</svg>
