<svg width="239" height="218" viewBox="0 0 239 218" fill="none" xmlns="http://www.w3.org/2000/svg">
<path fill-rule="evenodd" clip-rule="evenodd" d="M151.187 13.332C141.505 -3.44464 117.29 -3.44465 107.608 13.332L23.2382 159.515C13.5581 176.287 25.6627 197.249 45.028 197.249H55.5699L54.0228 190.884L112.944 149.171L177.248 136.542V176.845C177.248 189.827 182.582 197.224 194.658 197.224L194.665 197.249H213.767C233.132 197.249 245.237 176.287 235.557 159.515L151.187 13.332Z" fill="url(#paint0_linear_859_12107)"/>
<path d="M87.1822 157.474C76.5654 164.317 63.9862 153.65 72.6407 141.373L70.3765 131.41L53.4197 142.228L30.9282 167.185L47.3818 197.174H60.3634C84.1628 197.174 89.4946 198.013 100.516 188.771L132.481 160.644C140.568 154.437 145.614 149.801 151.638 150.983C166.079 153.817 179.513 157.977 191.891 141.373C191.891 141.373 208.345 121.145 210.156 118.78C211.967 116.415 209.452 113.692 206.382 115.61C203.313 117.529 185.752 128.441 185.752 128.441C179.765 131.46 179.01 134.379 167.186 131.41C155.361 128.441 142.832 119.035 129.599 127.888L87.1822 157.474Z" fill="url(#paint1_radial_859_12107)"/>
<path d="M126.559 86.8765C126.559 83.6476 123.942 81.03 120.713 81.03H87.7468C84.5179 81.03 81.9003 83.6476 81.9003 86.8765V162.968H120.713C123.942 162.968 126.559 160.35 126.559 157.122V86.8765Z" fill="url(#paint2_linear_859_12107)"/>
<path d="M138.215 144.55H89.8162" stroke="#112C81" stroke-width="4.73082" stroke-linecap="round"/>
<path d="M103.432 116.845H89.6594" stroke="#112C81" stroke-width="4.73082" stroke-linecap="round"/>
<path d="M103.432 108.286H89.6594" stroke="#112C81" stroke-width="4.73082" stroke-linecap="round"/>
<path d="M103.432 99.571H89.6594" stroke="#112C81" stroke-width="4.73082" stroke-linecap="round"/>
<path d="M138.136 135.367H89.7366" stroke="#112C81" stroke-width="4.73082" stroke-linecap="round"/>
<path d="M138.293 125.871H89.8938" stroke="#112C81" stroke-width="4.73082" stroke-linecap="round"/>
<path d="M178.599 71.3639C178.599 67.2944 175.3 63.9954 171.23 63.9954H105.354C101.285 63.9954 97.9858 67.2944 97.9858 71.3639V149.529H171.23C175.3 149.529 178.599 146.23 178.599 142.16V71.3639Z" fill="url(#paint3_linear_859_12107)"/>
<path d="M168.852 136.096H110.001" stroke="#112C81" stroke-width="4.73082" stroke-linecap="round"/>
<path d="M126.559 102.41H109.812" stroke="#112C81" stroke-width="4.73082" stroke-linecap="round"/>
<path d="M126.559 92.002H109.812" stroke="#112C81" stroke-width="4.73082" stroke-linecap="round"/>
<path d="M126.559 81.405H109.812" stroke="#112C81" stroke-width="4.73082" stroke-linecap="round"/>
<path d="M168.759 124.932H109.908" stroke="#112C81" stroke-width="4.73082" stroke-linecap="round"/>
<path d="M168.948 113.387H110.097" stroke="#112C81" stroke-width="4.73082" stroke-linecap="round"/>
<rect width="37.8464" height="26.4927" rx="4.73082" transform="matrix(-1 0 0 1 171.597 78.5659)" fill="#112C81"/>
<g filter="url(#filter0_d_859_12107)">
<path d="M87.1822 157.474C76.5654 164.317 63.9862 153.65 72.6407 141.373L70.3765 131.41L53.4197 142.228L30.9282 167.185L47.3818 197.174H60.3634C84.1628 197.174 89.4946 198.013 100.516 188.771L132.481 160.644C140.568 154.437 145.614 149.801 151.638 150.983C166.079 153.817 179.513 157.977 191.891 141.373C191.891 141.373 208.345 121.145 210.156 118.78C211.967 116.415 209.452 113.692 206.382 115.61C203.313 117.529 185.752 128.441 185.752 128.441C179.765 131.46 179.01 134.379 167.186 131.41C155.361 128.441 142.832 119.035 129.599 127.888L87.1822 157.474Z" fill="url(#paint4_radial_859_12107)"/>
</g>
<path fill-rule="evenodd" clip-rule="evenodd" d="M151.489 13.332C141.807 -3.44464 117.593 -3.44465 107.91 13.332L23.5405 159.515C13.8604 176.287 25.9649 197.249 45.3302 197.249H81.3422C63.5045 195.492 52.8843 175.657 62.1272 159.641L127.281 46.7452C136.625 30.5543 159.503 29.9883 169.794 45.0471L151.489 13.332Z" fill="url(#paint5_linear_859_12107)"/>
<defs>
<filter id="filter0_d_859_12107" x="0.738155" y="84.7721" width="230.154" height="132.549" filterUnits="userSpaceOnUse" color-interpolation-filters="sRGB">
<feFlood flood-opacity="0" result="BackgroundImageFix"/>
<feColorMatrix in="SourceAlpha" type="matrix" values="0 0 0 0 0 0 0 0 0 0 0 0 0 0 0 0 0 0 127 0" result="hardAlpha"/>
<feOffset dx="-5.03168" dy="-5.03168"/>
<feGaussianBlur stdDeviation="12.5792"/>
<feComposite in2="hardAlpha" operator="out"/>
<feColorMatrix type="matrix" values="0 0 0 0 0 0 0 0 0 0 0 0 0 0 0 0 0 0 0.25 0"/>
<feBlend mode="normal" in2="BackgroundImageFix" result="effect1_dropShadow_859_12107"/>
<feBlend mode="normal" in="SourceGraphic" in2="effect1_dropShadow_859_12107" result="shape"/>
</filter>
<linearGradient id="paint0_linear_859_12107" x1="129.397" y1="-24.4219" x2="402.114" y2="131.66" gradientUnits="userSpaceOnUse">
<stop stop-color="#061648"/>
<stop offset="0.217236" stop-color="#112A7D"/>
<stop offset="1" stop-color="#0152CC"/>
</linearGradient>
<radialGradient id="paint1_radial_859_12107" cx="0" cy="0" r="1" gradientUnits="userSpaceOnUse" gradientTransform="translate(210.81 85.6216) rotate(155.142) scale(183.498 401.304)">
<stop stop-color="#FFFAD0"/>
<stop offset="0.244429" stop-color="#F1DC3A"/>
<stop offset="0.584686" stop-color="#DCA11D"/>
<stop offset="0.824111" stop-color="#E0710B"/>
<stop offset="1" stop-color="#9E4E04"/>
</radialGradient>
<linearGradient id="paint2_linear_859_12107" x1="104.23" y1="81.03" x2="104.23" y2="165.996" gradientUnits="userSpaceOnUse">
<stop stop-color="#FAED90"/>
<stop offset="0.541667" stop-color="#E5BA2A"/>
<stop offset="1" stop-color="#DA6F0B"/>
</linearGradient>
<linearGradient id="paint3_linear_859_12107" x1="138.292" y1="63.9954" x2="138.292" y2="154.07" gradientUnits="userSpaceOnUse">
<stop stop-color="#FAEE93"/>
<stop offset="0.510417" stop-color="#E6BC2A"/>
<stop offset="1" stop-color="#BB5E07"/>
</linearGradient>
<radialGradient id="paint4_radial_859_12107" cx="0" cy="0" r="1" gradientUnits="userSpaceOnUse" gradientTransform="translate(210.81 85.6216) rotate(155.142) scale(183.498 401.304)">
<stop stop-color="#FFFAD0"/>
<stop offset="0.244429" stop-color="#F1DC3A"/>
<stop offset="0.584686" stop-color="#DCA11D"/>
<stop offset="0.885417" stop-color="#E0710B"/>
<stop offset="1" stop-color="#9E4E04"/>
</radialGradient>
<linearGradient id="paint5_linear_859_12107" x1="185.401" y1="39.1788" x2="94.964" y2="197.249" gradientUnits="userSpaceOnUse">
<stop offset="0.0885417" stop-color="#3076FF"/>
<stop offset="0.411458" stop-color="#024FC6"/>
<stop offset="1" stop-color="#0D2267"/>
</linearGradient>
</defs>
</svg>
