<svg width="239" height="218" viewBox="0 0 239 218" fill="none" xmlns="http://www.w3.org/2000/svg">
<path fill-rule="evenodd" clip-rule="evenodd" d="M151.187 13.3325C141.505 -3.44415 117.29 -3.44417 107.608 13.3325L23.2382 159.516C13.5581 176.288 25.6627 197.25 45.028 197.25H55.5699L54.0228 190.884L112.944 149.172L177.248 136.542V176.846C177.248 189.828 182.582 197.224 194.658 197.224L194.665 197.25H213.767C233.132 197.25 245.237 176.288 235.557 159.516L151.187 13.3325Z" fill="url(#paint0_linear_859_12133)"/>
<path d="M87.1822 157.474C76.5654 164.317 63.9862 153.65 72.6407 141.373L70.3765 131.41L53.4197 142.228L30.9282 167.185L47.3818 197.174H60.3634C84.1628 197.174 89.4946 198.013 100.516 188.771L132.481 160.644C140.568 154.437 145.614 149.801 151.638 150.983C166.079 153.817 179.513 157.977 191.891 141.373C191.891 141.373 208.345 121.145 210.156 118.78C211.967 116.415 209.452 113.692 206.382 115.61C203.313 117.529 185.752 128.441 185.752 128.441C179.765 131.46 179.01 134.379 167.186 131.41C155.361 128.441 142.832 119.035 129.599 127.888L87.1822 157.474Z" fill="url(#paint1_radial_859_12133)"/>
<path d="M102.717 75.1184C102.717 69.8928 106.953 65.6567 112.178 65.6567H167.813C173.038 65.6567 177.274 69.8929 177.274 75.1184V148.73H102.717V75.1184Z" fill="url(#paint2_linear_859_12133)"/>
<path d="M73.7646 116.749C73.7646 111.524 78.0008 107.288 83.2263 107.288H111.422C116.647 107.288 120.883 111.524 120.883 116.749V159.705H73.7646V116.749Z" fill="url(#paint3_linear_859_12133)"/>
<path d="M162.802 95.5225C165.45 97.051 165.45 100.872 162.802 102.401L131.571 120.432C128.924 121.961 125.614 120.05 125.614 116.993L125.614 80.9303C125.614 77.8732 128.924 75.9625 131.571 77.4911L162.802 95.5225Z" fill="url(#paint4_linear_859_12133)"/>
<path d="M83.6045 124.508H111.422" stroke="#034DC2" stroke-width="7.5693" stroke-linecap="round"/>
<path d="M83.6045 136.619H111.422" stroke="#034DC2" stroke-width="7.5693" stroke-linecap="round"/>
<path d="M83.6045 148.73H111.422" stroke="#034DC2" stroke-width="7.5693" stroke-linecap="round"/>
<g filter="url(#filter0_d_859_12133)">
<path d="M87.1822 157.474C76.5654 164.317 63.9862 153.65 72.6407 141.373L70.3765 131.41L53.4197 142.228L30.9282 167.185L47.3818 197.174H60.3634C84.1628 197.174 89.4946 198.013 100.516 188.771L132.481 160.644C140.568 154.437 145.614 149.801 151.638 150.983C166.079 153.817 179.513 157.977 191.891 141.373C191.891 141.373 208.345 121.145 210.156 118.78C211.967 116.415 209.452 113.692 206.382 115.61C203.313 117.529 185.752 128.441 185.752 128.441C179.765 131.46 179.01 134.379 167.186 131.41C155.361 128.441 142.832 119.035 129.599 127.888L87.1822 157.474Z" fill="url(#paint5_radial_859_12133)"/>
</g>
<path fill-rule="evenodd" clip-rule="evenodd" d="M151.489 13.3325C141.807 -3.44415 117.593 -3.44417 107.91 13.3325L23.5405 159.516C13.8604 176.288 25.9649 197.25 45.3302 197.25H81.3422C63.5045 195.493 52.8843 175.657 62.1272 159.642L127.281 46.7457C136.625 30.5548 159.503 29.9887 169.794 45.0476L151.489 13.3325Z" fill="url(#paint6_linear_859_12133)"/>
<defs>
<filter id="filter0_d_859_12133" x="0.738155" y="84.7721" width="230.154" height="132.549" filterUnits="userSpaceOnUse" color-interpolation-filters="sRGB">
<feFlood flood-opacity="0" result="BackgroundImageFix"/>
<feColorMatrix in="SourceAlpha" type="matrix" values="0 0 0 0 0 0 0 0 0 0 0 0 0 0 0 0 0 0 127 0" result="hardAlpha"/>
<feOffset dx="-5.03168" dy="-5.03168"/>
<feGaussianBlur stdDeviation="12.5792"/>
<feComposite in2="hardAlpha" operator="out"/>
<feColorMatrix type="matrix" values="0 0 0 0 0 0 0 0 0 0 0 0 0 0 0 0 0 0 0.25 0"/>
<feBlend mode="normal" in2="BackgroundImageFix" result="effect1_dropShadow_859_12133"/>
<feBlend mode="normal" in="SourceGraphic" in2="effect1_dropShadow_859_12133" result="shape"/>
</filter>
<linearGradient id="paint0_linear_859_12133" x1="129.397" y1="-24.4214" x2="402.114" y2="131.66" gradientUnits="userSpaceOnUse">
<stop stop-color="#061648"/>
<stop offset="0.217236" stop-color="#112A7D"/>
<stop offset="1" stop-color="#0152CC"/>
</linearGradient>
<radialGradient id="paint1_radial_859_12133" cx="0" cy="0" r="1" gradientUnits="userSpaceOnUse" gradientTransform="translate(210.81 85.6216) rotate(155.142) scale(183.498 401.304)">
<stop stop-color="#FFFAD0"/>
<stop offset="0.244429" stop-color="#F1DC3A"/>
<stop offset="0.584686" stop-color="#DCA11D"/>
<stop offset="0.824111" stop-color="#E0710B"/>
<stop offset="1" stop-color="#9E4E04"/>
</radialGradient>
<linearGradient id="paint2_linear_859_12133" x1="139.995" y1="65.6567" x2="139.995" y2="148.73" gradientUnits="userSpaceOnUse">
<stop stop-color="#FAED90"/>
<stop offset="0.5" stop-color="#E6BD2B"/>
<stop offset="1" stop-color="#E1740C"/>
</linearGradient>
<linearGradient id="paint3_linear_859_12133" x1="97.324" y1="107.288" x2="97.324" y2="159.705" gradientUnits="userSpaceOnUse">
<stop stop-color="#FAED90"/>
<stop offset="0.5" stop-color="#E6BD2B"/>
<stop offset="1" stop-color="#E1740C"/>
</linearGradient>
<linearGradient id="paint4_linear_859_12133" x1="122.355" y1="74.7578" x2="121.545" y2="116.305" gradientUnits="userSpaceOnUse">
<stop stop-color="#3076FF"/>
<stop offset="1" stop-color="#0D2268"/>
</linearGradient>
<radialGradient id="paint5_radial_859_12133" cx="0" cy="0" r="1" gradientUnits="userSpaceOnUse" gradientTransform="translate(210.81 85.6216) rotate(155.142) scale(183.498 401.304)">
<stop stop-color="#FFFAD0"/>
<stop offset="0.244429" stop-color="#F1DC3A"/>
<stop offset="0.584686" stop-color="#DCA11D"/>
<stop offset="0.885417" stop-color="#E0710B"/>
<stop offset="1" stop-color="#9E4E04"/>
</radialGradient>
<linearGradient id="paint6_linear_859_12133" x1="185.401" y1="39.1792" x2="94.964" y2="197.25" gradientUnits="userSpaceOnUse">
<stop offset="0.0885417" stop-color="#3076FF"/>
<stop offset="0.411458" stop-color="#024FC6"/>
<stop offset="1" stop-color="#0D2267"/>
</linearGradient>
</defs>
</svg>
