<svg width="239" height="218" viewBox="0 0 239 218" fill="none" xmlns="http://www.w3.org/2000/svg">
<path fill-rule="evenodd" clip-rule="evenodd" d="M151.188 13.3317C141.505 -3.44487 117.291 -3.4449 107.608 13.3317L23.2383 159.515C13.5581 176.287 25.6627 197.249 45.028 197.249H55.5695L54.0224 190.884L112.944 149.171L177.249 136.541V176.845C177.249 189.827 182.582 197.224 194.658 197.224L194.666 197.249H213.768C233.134 197.249 245.238 176.287 235.558 159.515L151.188 13.3317Z" fill="url(#paint0_linear_859_12163)"/>
<rect x="148.7" y="90.2571" width="28.385" height="57.3377" rx="5.03169" fill="url(#paint1_linear_859_12163)"/>
<rect x="117.856" y="111.451" width="28.1958" height="40.1175" rx="5.03169" fill="url(#paint2_linear_859_12163)"/>
<rect x="87.0103" y="94.231" width="28.1958" height="82.8842" rx="5.03169" fill="url(#paint3_linear_859_12163)"/>
<rect x="56.0366" y="104.893" width="28.2781" height="78.1925" rx="5.03169" fill="url(#paint4_linear_859_12163)"/>
<path d="M87.1821 157.474C76.5652 164.317 63.986 153.649 72.6405 141.372L70.3763 131.409L53.4194 142.228L30.9277 167.185L47.3814 197.174H60.3632C84.1627 197.174 89.4946 198.013 100.516 188.771L132.482 160.644C140.568 154.437 145.614 149.801 151.638 150.983C166.079 153.817 179.514 157.977 191.892 141.372C191.892 141.372 208.345 121.145 210.157 118.78C211.968 116.415 209.452 113.692 206.383 115.61C203.314 117.528 185.753 128.441 185.753 128.441C179.765 131.46 179.011 134.378 167.186 131.409C155.362 128.441 142.833 119.035 129.599 127.887L87.1821 157.474Z" fill="url(#paint5_radial_859_12163)"/>
<path fill-rule="evenodd" clip-rule="evenodd" d="M152.389 73.7672C154.959 69.9622 156.459 65.3755 156.459 60.4384C156.459 47.27 145.784 36.595 132.616 36.595C119.448 36.595 108.772 47.27 108.772 60.4384C108.772 65.384 110.278 69.978 112.856 73.7868L129.792 103.121C131.048 105.295 134.186 105.295 135.441 103.121L152.389 73.7672Z" fill="url(#paint6_linear_859_12163)"/>
<ellipse cx="132.503" cy="61.2248" rx="16.7579" ry="16.7579" fill="url(#paint7_linear_859_12163)"/>
<g filter="url(#filter0_d_859_12163)">
<path d="M87.1821 157.474C76.5652 164.317 63.986 153.649 72.6405 141.372L70.3763 131.409L53.4194 142.228L30.9277 167.185L47.3814 197.174H60.3632C84.1627 197.174 89.4946 198.013 100.516 188.771L132.482 160.644C140.568 154.437 145.614 149.801 151.638 150.983C166.079 153.817 179.514 157.977 191.892 141.372C191.892 141.372 208.345 121.145 210.157 118.78C211.968 116.415 209.452 113.692 206.383 115.61C203.314 117.528 185.753 128.441 185.753 128.441C179.765 131.46 179.011 134.378 167.186 131.409C155.362 128.441 142.833 119.035 129.599 127.887L87.1821 157.474Z" fill="url(#paint8_radial_859_12163)"/>
</g>
<path fill-rule="evenodd" clip-rule="evenodd" d="M151.49 13.3317C141.807 -3.44487 117.593 -3.4449 107.911 13.3317L23.5405 159.515C13.8603 176.287 25.9649 197.249 45.3303 197.249H81.3424C63.5045 195.492 52.8842 175.657 62.1272 159.641L127.282 46.7449C136.626 30.553 159.507 29.988 169.796 45.0496L151.49 13.3317Z" fill="url(#paint9_linear_859_12163)"/>
<defs>
<filter id="filter0_d_859_12163" x="0.737564" y="84.7714" width="230.155" height="132.549" filterUnits="userSpaceOnUse" color-interpolation-filters="sRGB">
<feFlood flood-opacity="0" result="BackgroundImageFix"/>
<feColorMatrix in="SourceAlpha" type="matrix" values="0 0 0 0 0 0 0 0 0 0 0 0 0 0 0 0 0 0 127 0" result="hardAlpha"/>
<feOffset dx="-5.03169" dy="-5.03169"/>
<feGaussianBlur stdDeviation="12.5792"/>
<feComposite in2="hardAlpha" operator="out"/>
<feColorMatrix type="matrix" values="0 0 0 0 0 0 0 0 0 0 0 0 0 0 0 0 0 0 0.25 0"/>
<feBlend mode="normal" in2="BackgroundImageFix" result="effect1_dropShadow_859_12163"/>
<feBlend mode="normal" in="SourceGraphic" in2="effect1_dropShadow_859_12163" result="shape"/>
</filter>
<linearGradient id="paint0_linear_859_12163" x1="129.398" y1="-24.4221" x2="402.116" y2="131.661" gradientUnits="userSpaceOnUse">
<stop stop-color="#061648"/>
<stop offset="0.217236" stop-color="#112A7D"/>
<stop offset="1" stop-color="#0152CC"/>
</linearGradient>
<linearGradient id="paint1_linear_859_12163" x1="162.893" y1="90.2571" x2="162.893" y2="147.595" gradientUnits="userSpaceOnUse">
<stop stop-color="#F5E45F"/>
<stop offset="0.401042" stop-color="#E3B326"/>
<stop offset="0.979167" stop-color="#D86D0B"/>
</linearGradient>
<linearGradient id="paint2_linear_859_12163" x1="131.954" y1="111.451" x2="131.954" y2="151.568" gradientUnits="userSpaceOnUse">
<stop stop-color="#F5E45F"/>
<stop offset="0.401042" stop-color="#E3B326"/>
<stop offset="1" stop-color="#D86D0B"/>
</linearGradient>
<linearGradient id="paint3_linear_859_12163" x1="101.108" y1="94.231" x2="101.108" y2="177.115" gradientUnits="userSpaceOnUse">
<stop stop-color="#F5E45F"/>
<stop offset="0.401042" stop-color="#E3B326"/>
<stop offset="1" stop-color="#D86D0B"/>
</linearGradient>
<linearGradient id="paint4_linear_859_12163" x1="70.1757" y1="104.893" x2="70.1757" y2="183.086" gradientUnits="userSpaceOnUse">
<stop stop-color="#F5E45F"/>
<stop offset="0.401042" stop-color="#E3B326"/>
<stop offset="0.994792" stop-color="#D86D0B"/>
</linearGradient>
<radialGradient id="paint5_radial_859_12163" cx="0" cy="0" r="1" gradientUnits="userSpaceOnUse" gradientTransform="translate(210.811 85.621) rotate(155.143) scale(183.499 401.305)">
<stop stop-color="#FFFAD0"/>
<stop offset="0.244429" stop-color="#F1DC3A"/>
<stop offset="0.584686" stop-color="#DCA11D"/>
<stop offset="0.824111" stop-color="#E0710B"/>
<stop offset="1" stop-color="#9E4E04"/>
</radialGradient>
<linearGradient id="paint6_linear_859_12163" x1="132.616" y1="36.595" x2="132.616" y2="104.751" gradientUnits="userSpaceOnUse">
<stop stop-color="#F9EC8B"/>
<stop offset="0.510417" stop-color="#E5B929"/>
<stop offset="0.964472" stop-color="#BC5E08"/>
</linearGradient>
<linearGradient id="paint7_linear_859_12163" x1="150.806" y1="40.6517" x2="132.503" y2="77.9826" gradientUnits="userSpaceOnUse">
<stop stop-color="#3076FF"/>
<stop offset="1" stop-color="#0D2268"/>
</linearGradient>
<radialGradient id="paint8_radial_859_12163" cx="0" cy="0" r="1" gradientUnits="userSpaceOnUse" gradientTransform="translate(210.811 85.621) rotate(155.143) scale(183.499 401.305)">
<stop stop-color="#FFFAD0"/>
<stop offset="0.244429" stop-color="#F1DC3A"/>
<stop offset="0.584686" stop-color="#DCA11D"/>
<stop offset="0.885417" stop-color="#E0710B"/>
<stop offset="1" stop-color="#9E4E04"/>
</radialGradient>
<linearGradient id="paint9_linear_859_12163" x1="185.404" y1="39.1786" x2="94.9673" y2="197.25" gradientUnits="userSpaceOnUse">
<stop offset="0.0885417" stop-color="#3076FF"/>
<stop offset="0.411458" stop-color="#024FC6"/>
<stop offset="1" stop-color="#0D2267"/>
</linearGradient>
</defs>
</svg>
