<svg width="239" height="217" viewBox="0 0 239 217" fill="none" xmlns="http://www.w3.org/2000/svg">
<path fill-rule="evenodd" clip-rule="evenodd" d="M150.918 12.7906C141.235 -3.98602 117.021 -3.98604 107.338 12.7906L22.9687 158.974C13.2886 175.746 25.3932 196.708 44.7584 196.708H55.3003L53.7533 190.342L112.674 148.63L176.979 136V176.304C176.979 189.286 182.312 196.682 194.388 196.682L194.396 196.708H213.497C232.863 196.708 244.967 175.746 235.287 158.974L150.918 12.7906Z" fill="url(#paint0_linear_859_12149)"/>
<path d="M86.9117 156.933C76.2949 163.776 63.7157 153.109 72.3702 140.831L70.106 130.869L53.1492 141.687L30.6577 166.644L47.1112 196.633H60.0929C83.8923 196.633 89.2241 197.472 100.246 188.23L132.211 160.103C140.298 153.896 145.344 149.26 151.367 150.442C165.808 153.276 179.243 157.436 191.621 140.831C191.621 140.831 208.074 120.604 209.885 118.239C211.697 115.874 209.181 113.151 206.112 115.069C203.042 116.988 185.482 127.9 185.482 127.9C179.494 130.919 178.739 133.837 166.915 130.869C155.091 127.9 142.562 118.494 129.329 127.347L86.9117 156.933Z" fill="url(#paint1_radial_859_12149)"/>
<rect width="75.8824" height="15.8682" transform="matrix(0.43302 -0.901384 0.901382 0.433025 81.8203 166.861)" fill="url(#paint2_linear_859_12149)"/>
<ellipse cx="129.034" cy="89.8519" rx="44.5641" ry="44.5644" fill="url(#paint3_linear_859_12149)"/>
<ellipse cx="129.033" cy="89.8517" rx="32.8317" ry="32.832" fill="url(#paint4_linear_859_12149)"/>
<path d="M106.988 99.5028L122.789 83.7018L133.859 94.7719L150.795 77.8356" stroke="url(#paint5_linear_859_12149)" stroke-width="9.46163" stroke-linecap="round"/>
<g filter="url(#filter0_d_859_12149)">
<path d="M86.9117 156.933C76.2949 163.776 63.7157 153.109 72.3702 140.831L70.106 130.869L53.1492 141.687L30.6577 166.644L47.1112 196.633H60.0929C83.8923 196.633 89.2241 197.472 100.246 188.23L132.211 160.103C140.298 153.896 145.344 149.26 151.367 150.442C165.808 153.276 179.243 157.436 191.621 140.831C191.621 140.831 208.074 120.604 209.885 118.239C211.697 115.874 209.181 113.151 206.112 115.069C203.042 116.988 185.482 127.9 185.482 127.9C179.494 130.919 178.739 133.837 166.915 130.869C155.091 127.9 142.562 118.494 129.329 127.347L86.9117 156.933Z" fill="url(#paint6_radial_859_12149)"/>
</g>
<path fill-rule="evenodd" clip-rule="evenodd" d="M151.22 12.791C141.537 -3.98565 117.323 -3.98567 107.64 12.791L23.271 158.974C13.5909 175.746 25.6954 196.708 45.0607 196.708H81.0727C63.235 194.951 52.6148 175.116 61.8576 159.1L127.012 46.2042C136.356 30.0133 159.234 29.4472 169.524 44.5061L151.22 12.791Z" fill="url(#paint7_linear_859_12149)"/>
<defs>
<filter id="filter0_d_859_12149" x="0.467648" y="84.2308" width="230.154" height="132.549" filterUnits="userSpaceOnUse" color-interpolation-filters="sRGB">
<feFlood flood-opacity="0" result="BackgroundImageFix"/>
<feColorMatrix in="SourceAlpha" type="matrix" values="0 0 0 0 0 0 0 0 0 0 0 0 0 0 0 0 0 0 127 0" result="hardAlpha"/>
<feOffset dx="-5.03168" dy="-5.03168"/>
<feGaussianBlur stdDeviation="12.5792"/>
<feComposite in2="hardAlpha" operator="out"/>
<feColorMatrix type="matrix" values="0 0 0 0 0 0 0 0 0 0 0 0 0 0 0 0 0 0 0.25 0"/>
<feBlend mode="normal" in2="BackgroundImageFix" result="effect1_dropShadow_859_12149"/>
<feBlend mode="normal" in="SourceGraphic" in2="effect1_dropShadow_859_12149" result="shape"/>
</filter>
<linearGradient id="paint0_linear_859_12149" x1="129.128" y1="-24.9632" x2="401.845" y2="131.118" gradientUnits="userSpaceOnUse">
<stop stop-color="#061648"/>
<stop offset="0.217236" stop-color="#112A7D"/>
<stop offset="1" stop-color="#0152CC"/>
</linearGradient>
<radialGradient id="paint1_radial_859_12149" cx="0" cy="0" r="1" gradientUnits="userSpaceOnUse" gradientTransform="translate(210.54 85.0803) rotate(155.142) scale(183.498 401.304)">
<stop stop-color="#FFFAD0"/>
<stop offset="0.244429" stop-color="#F1DC3A"/>
<stop offset="0.584686" stop-color="#DCA11D"/>
<stop offset="0.824111" stop-color="#E0710B"/>
<stop offset="1" stop-color="#9E4E04"/>
</radialGradient>
<linearGradient id="paint2_linear_859_12149" x1="-1.202" y1="0.479085" x2="72.9895" y2="-0.0967915" gradientUnits="userSpaceOnUse">
<stop stop-color="#C96509"/>
<stop offset="0.546875" stop-color="#E2B125"/>
<stop offset="1" stop-color="#F9ED8F"/>
</linearGradient>
<linearGradient id="paint3_linear_859_12149" x1="129.034" y1="45.2875" x2="129.034" y2="134.416" gradientUnits="userSpaceOnUse">
<stop stop-color="#FAEE91"/>
<stop offset="0.546875" stop-color="#E6BD2B"/>
<stop offset="0.9999" stop-color="#BD5F08"/>
<stop offset="1" stop-color="#D9D9D9" stop-opacity="0"/>
</linearGradient>
<linearGradient id="paint4_linear_859_12149" x1="164.893" y1="49.5451" x2="129.033" y2="122.684" gradientUnits="userSpaceOnUse">
<stop stop-color="#3076FF"/>
<stop offset="1" stop-color="#0D2268"/>
</linearGradient>
<linearGradient id="paint5_linear_859_12149" x1="128.891" y1="77.8356" x2="128.891" y2="99.5028" gradientUnits="userSpaceOnUse">
<stop stop-color="#F9EB8B"/>
<stop offset="0.541667" stop-color="#E5B929"/>
<stop offset="1" stop-color="#A5590B"/>
</linearGradient>
<radialGradient id="paint6_radial_859_12149" cx="0" cy="0" r="1" gradientUnits="userSpaceOnUse" gradientTransform="translate(210.54 85.0803) rotate(155.142) scale(183.498 401.304)">
<stop stop-color="#FFFAD0"/>
<stop offset="0.244429" stop-color="#F1DC3A"/>
<stop offset="0.584686" stop-color="#DCA11D"/>
<stop offset="0.885417" stop-color="#E0710B"/>
<stop offset="1" stop-color="#9E4E04"/>
</radialGradient>
<linearGradient id="paint7_linear_859_12149" x1="185.132" y1="38.6377" x2="94.6945" y2="196.708" gradientUnits="userSpaceOnUse">
<stop offset="0.0885417" stop-color="#3076FF"/>
<stop offset="0.411458" stop-color="#024FC6"/>
<stop offset="1" stop-color="#0D2267"/>
</linearGradient>
</defs>
</svg>
