<svg width="24" height="24" viewBox="0 0 24 24" fill="none" xmlns="http://www.w3.org/2000/svg">
<path fillRule="evenodd" clipRule="evenodd" d="M15.7072 12.707C15.8947 12.5194 16 12.2651 16 12C16 11.7348 15.8947 11.4805 15.7072 11.293L10.0502 5.63598C9.95797 5.54047 9.84762 5.46428 9.72562 5.41188C9.60361 5.35947 9.47239 5.33188 9.33961 5.33073C9.20684 5.32957 9.07516 5.35487 8.95226 5.40516C8.82936 5.45544 8.71771 5.52969 8.62382 5.62358C8.52993 5.71747 8.45567 5.82913 8.40539 5.95202C8.35511 6.07492 8.32981 6.2066 8.33096 6.33938C8.33212 6.47216 8.3597 6.60338 8.41211 6.72538C8.46452 6.84739 8.5407 6.95773 8.63621 7.04998L13.5862 12L8.63621 16.95C8.45406 17.1386 8.35326 17.3912 8.35554 17.6534C8.35782 17.9156 8.46299 18.1664 8.64839 18.3518C8.8338 18.5372 9.08462 18.6424 9.34681 18.6447C9.60901 18.6469 9.86161 18.5461 10.0502 18.364L15.7072 12.707Z" fill="#94A0B8"/>
</svg>
