<svg width="120" height="151" viewBox="0 0 120 151" fill="none" xmlns="http://www.w3.org/2000/svg">
<path d="M89.2832 106.359C89.2832 114.577 82.621 121.239 74.4027 121.239C66.1845 121.239 59.5222 114.577 59.5222 106.359L59.5222 91.4783L74.4027 91.4783C82.621 91.4783 89.2832 98.1405 89.2832 106.359Z" fill="#F9B20B"/>
<path d="M89.2832 106.359C89.2832 114.577 95.9454 121.239 104.164 121.239C112.382 121.239 119.044 114.577 119.044 106.359L119.044 91.4783L104.164 91.4783C95.9454 91.4783 89.2832 98.1405 89.2832 106.359Z" fill="#F9B20B"/>
<path d="M89.2832 136.12C89.2832 127.901 82.621 121.239 74.4027 121.239C66.1845 121.239 59.5222 127.901 59.5222 136.12L59.5222 151L74.4027 151C82.621 151 89.2832 144.338 89.2832 136.12Z" fill="#F9B20B"/>
<path d="M89.2832 136.12C89.2832 127.901 95.9454 121.239 104.164 121.239C112.382 121.239 119.044 127.901 119.044 136.12L119.044 151L104.164 151C95.9454 151 89.2832 144.338 89.2832 136.12Z" fill="#F9B20B"/>
<path d="M87.7424 45.1627C87.7424 52.3981 81.8769 58.2636 74.6415 58.2636C67.406 58.2636 61.5406 52.3981 61.5406 45.1627L61.5406 32.0618L74.6415 32.0618C81.8769 32.0618 87.7424 37.9273 87.7424 45.1627Z" stroke="#F9B20B" stroke-width="4.03726"/>
<path d="M91.7796 45.1627C91.7796 52.3981 97.6451 58.2636 104.881 58.2636C112.116 58.2636 117.981 52.3981 117.981 45.1627L117.981 32.0618L104.881 32.0618C97.6451 32.0618 91.7796 37.9273 91.7796 45.1627Z" stroke="#F9B20B" stroke-width="4.03726"/>
<path d="M87.7424 75.4017C87.7424 68.1663 81.8769 62.3009 74.6415 62.3009C67.406 62.3009 61.5406 68.1663 61.5406 75.4017L61.5406 88.5026L74.6415 88.5026C81.8769 88.5026 87.7424 82.6372 87.7424 75.4017Z" stroke="#F9B20B" stroke-width="4.03726"/>
<path d="M91.7796 75.4017C91.7796 68.1663 97.6451 62.3009 104.881 62.3009C112.116 62.3009 117.981 68.1663 117.981 75.4017L117.981 88.5026L104.881 88.5026C97.6451 88.5026 91.7796 82.6372 91.7796 75.4017Z" stroke="#F9B20B" stroke-width="4.03726"/>
<path d="M57.5353 106.358C57.5353 99.2375 51.7625 93.4647 44.6415 93.4647C37.5205 93.4647 31.7478 99.2375 31.7478 106.358L31.7478 119.252L44.6415 119.252C51.7625 119.252 57.5353 113.48 57.5353 106.358Z" stroke="#F9B20B" stroke-width="3.97342"/>
<path d="M57.5353 136.12C57.5353 143.241 51.7625 149.013 44.6415 149.013C37.5205 149.013 31.7478 143.241 31.7478 136.12L31.7478 123.226L44.6415 123.226C51.7625 123.226 57.5353 128.999 57.5353 136.12Z" stroke="#F9B20B" stroke-width="3.97342"/>
<path d="M1.98671 106.358C1.98671 99.2375 7.75944 93.4647 14.8805 93.4647C22.0015 93.4647 27.7742 99.2375 27.7742 106.358L27.7742 119.252L14.8805 119.252C7.75944 119.252 1.98671 113.48 1.98671 106.358Z" stroke="#F9B20B" stroke-width="3.97342"/>
<path d="M1.98671 136.12C1.98671 143.241 7.75944 149.013 14.8805 149.013C22.0015 149.013 27.7742 143.241 27.7742 136.12L27.7742 123.226L14.8805 123.226C7.75944 123.226 1.98671 128.999 1.98671 136.12Z" stroke="#F9B20B" stroke-width="3.97342"/>
<path d="M117.209 15.4022C117.209 8.39554 111.529 2.71554 104.522 2.71554C97.5153 2.71554 91.8353 8.39554 91.8353 15.4022L91.8353 28.0888L104.522 28.0888C111.529 28.0888 117.209 22.4088 117.209 15.4022Z" stroke="#F9B20B" stroke-width="3.9096"/>
<path d="M110.067 15.4023C110.067 12.3398 107.585 9.85714 104.522 9.85714C101.46 9.85714 98.977 12.3398 98.977 15.4023L98.977 20.9474L104.522 20.9474C107.585 20.9474 110.067 18.4647 110.067 15.4023Z" stroke="#F9B20B" stroke-width="3.9096"/>
</svg>
