<svg width="20" height="20" viewBox="0 0 20 20" fill="none" xmlns="http://www.w3.org/2000/svg">
<g id="iconamoon:search-bold">
<path id="Vector" d="M17.5002 17.4999L13.881 13.8808M13.881 13.8808C14.5001 13.2617 14.9912 12.5267 15.3262 11.7179C15.6612 10.909 15.8337 10.0421 15.8337 9.16659C15.8337 8.29109 15.6612 7.42416 15.3262 6.61531C14.9912 5.80645 14.5001 5.0715 13.881 4.45243C13.2619 3.83335 12.527 3.34228 11.7181 3.00724C10.9093 2.6722 10.0423 2.49976 9.16684 2.49976C8.29134 2.49976 7.42441 2.6722 6.61555 3.00724C5.80669 3.34228 5.07174 3.83335 4.45267 4.45243C3.2024 5.7027 2.5 7.39844 2.5 9.16659C2.5 10.9347 3.2024 12.6305 4.45267 13.8808C5.70295 15.131 7.39868 15.8334 9.16684 15.8334C10.935 15.8334 12.6307 15.131 13.881 13.8808Z" stroke="#040D21" stroke-width="2.08333" stroke-linecap="round" stroke-linejoin="round"/>
</g>
</svg>
